<svg width="38" height="46" viewBox="0 0 38 46" fill="none" xmlns="http://www.w3.org/2000/svg">
<path d="M35.5008 4.22848H24.9777C24.5571 2.99633 23.7546 1.92542 22.6834 1.16676C21.6122 0.408107 20.3264 0 19.0073 0C17.6882 0 16.4024 0.408107 15.3312 1.16676C14.26 1.92542 13.4576 2.99633 13.0369 4.22848H2.92308C2.56515 4.17746 2.20032 4.20183 1.85265 4.29997C1.50498 4.39812 1.18238 4.56781 0.906149 4.79785C0.629913 5.0279 0.406319 5.31306 0.250122 5.63452C0.0939243 5.95598 0.00867506 6.30643 0 6.66275V43.5657C0.00191368 43.8873 0.0680772 44.2053 0.194712 44.5017C0.321347 44.798 0.505973 45.0669 0.738049 45.293C0.970125 45.519 1.24511 45.6978 1.54729 45.8191C1.84947 45.9404 2.17294 46.0019 2.49923 46H35.5008C35.8271 46.0019 36.1505 45.9404 36.4527 45.8191C36.7549 45.6978 37.0299 45.519 37.262 45.293C37.494 45.0669 37.6786 44.798 37.8053 44.5017C37.9319 44.2053 37.9981 43.8873 38 43.5657V6.66275C37.9981 6.34118 37.9319 6.02314 37.8053 5.72677C37.6786 5.43041 37.494 5.16152 37.262 4.93548C37.0299 4.70944 36.7549 4.53066 36.4527 4.40935C36.1505 4.28804 35.8271 4.22658 35.5008 4.22848ZM9.19308 8.54967C9.19308 8.16765 9.34706 7.80128 9.62115 7.53115C9.89524 7.26103 10.267 7.10927 10.6546 7.10927H15.6823V6.20182C15.6823 5.31745 16.0388 4.4693 16.6733 3.84396C17.3078 3.21862 18.1684 2.8673 19.0658 2.8673C19.9631 2.8673 20.8237 3.21862 21.4582 3.84396C22.0928 4.4693 22.4492 5.31745 22.4492 6.20182V7.18129H27.4769C27.8645 7.18129 28.2363 7.33305 28.5104 7.60317C28.7845 7.8733 28.9385 8.23967 28.9385 8.62169V11.2144H9.13461L9.19308 8.54967ZM30.4146 21.8445L17.0854 34.9809L9.42692 27.4333C9.0393 27.0512 8.82153 26.5331 8.82153 25.9929C8.82153 25.4526 9.0393 24.9345 9.42692 24.5525C9.81455 24.1704 10.3403 23.9558 10.8885 23.9558C11.4366 23.9558 11.9624 24.1704 12.35 24.5525L17.1146 29.2482L27.55 18.9637C27.9376 18.5817 28.4634 18.3671 29.0115 18.3671C29.5597 18.3671 30.0855 18.5817 30.4731 18.9637C30.8607 19.3457 31.0785 19.8639 31.0785 20.4041C31.0785 20.9444 30.8607 21.4625 30.4731 21.8445H30.4146Z" fill="white"/>
</svg>
