<svg width="41" height="46" viewBox="0 0 41 46" fill="none" xmlns="http://www.w3.org/2000/svg">
<path d="M5.12528 27.594L30.1571 27.5963C30.394 27.992 30.681 28.3578 31.0227 28.6844L32.6605 30.2534C32.4483 31.0633 32.1264 31.8397 31.7038 32.5607C31.2752 33.3129 30.7489 34.0038 30.1389 34.615L28.3302 34.0054C27.2931 33.6606 26.1726 33.669 25.1406 34.0293C24.1086 34.3896 23.2222 35.0819 22.6173 35.9999L20.9749 38.4384C20.28 39.4757 19.9617 40.7238 20.0738 41.9711C20.1859 43.2184 20.7215 44.3882 21.5899 45.2823L22.107 45.8068C20.8724 45.9356 19.5786 46 18.2164 46C11.6332 46 6.5353 44.4909 2.97494 41.3991C2.04176 40.5893 1.29282 39.5854 0.779366 38.4562C0.265911 37.327 5.92974e-05 36.0991 0 34.8566V32.7701C0 32.0903 0.132569 31.4173 0.390138 30.7893C0.647708 30.1613 1.02523 29.5907 1.50116 29.11C1.97708 28.6294 2.54209 28.2481 3.16392 27.988C3.78574 27.7279 4.45221 27.594 5.12528 27.594ZM33.0546 20.8261C33.5922 19.547 34.8792 18.85 36.1434 19.1168L36.4122 19.1858L37.8473 19.6505C39.271 20.1106 40.3621 21.3414 40.7152 22.8873C41.5512 26.5634 40.5466 31.0378 37.7038 36.3128C34.8633 41.5808 31.7494 44.7463 28.3644 45.8137C27.718 46.0159 27.0314 46.0496 26.3687 45.9116C25.7059 45.7737 25.0885 45.4685 24.574 45.0246L24.2938 44.7647L23.2027 43.6604C22.744 43.1835 22.4477 42.5713 22.3568 41.9128C22.2658 41.2543 22.385 40.5836 22.697 39.9981L22.8587 39.7313L24.5011 37.2928C25.148 36.3335 26.2551 35.8803 27.3211 36.108L27.6104 36.1885L30.6446 37.2099C31.8758 36.2616 32.906 35.0733 33.6742 33.7155C34.3385 32.5875 34.7982 31.3489 35.0318 30.0578L35.1184 29.4367L32.5922 27.0166C32.1842 26.6154 31.8942 26.1079 31.7543 25.5504C31.6143 24.9929 31.63 24.4071 31.7995 23.8581L31.9065 23.559L33.0546 20.8261ZM18.2164 0C19.7121 -2.25083e-08 21.1931 0.297515 22.5749 0.87556C23.9568 1.4536 25.2123 2.30086 26.27 3.36895C27.3276 4.43703 28.1665 5.70504 28.7389 7.10056C29.3113 8.49608 29.6059 9.9918 29.6059 11.5023C29.6059 13.0128 29.3113 14.5085 28.7389 15.904C28.1665 17.2996 27.3276 18.5676 26.27 19.6357C25.2123 20.7037 23.9568 21.551 22.5749 22.129C21.1931 22.7071 19.7121 23.0046 18.2164 23.0046C15.1957 23.0046 12.2987 21.7928 10.1628 19.6357C8.02683 17.4786 6.82687 14.5529 6.82687 11.5023C6.82687 8.4517 8.02683 5.52605 10.1628 3.36895C12.2987 1.21185 15.1957 0 18.2164 0Z" fill="white"/>
</svg>
