<svg width="23" height="5" viewBox="0 0 23 5" fill="none" xmlns="http://www.w3.org/2000/svg">
<path d="M2.75 2.375C2.75 2.58211 2.58211 2.75 2.375 2.75C2.16789 2.75 2 2.58211 2 2.375C2 2.16789 2.16789 2 2.375 2C2.58211 2 2.75 2.16789 2.75 2.375Z" stroke="black" stroke-width="4" stroke-linecap="round" stroke-linejoin="round"/>
<path d="M11.5 2.375C11.5 2.58211 11.3321 2.75 11.125 2.75C10.9179 2.75 10.75 2.58211 10.75 2.375C10.75 2.16789 10.9179 2 11.125 2C11.3321 2 11.5 2.16789 11.5 2.375Z" stroke="black" stroke-width="4" stroke-linecap="round" stroke-linejoin="round"/>
<path d="M20.25 2.375C20.25 2.58211 20.0821 2.75 19.875 2.75C19.6679 2.75 19.5 2.58211 19.5 2.375C19.5 2.16789 19.6679 2 19.875 2C20.0821 2 20.25 2.16789 20.25 2.375Z" stroke="black" stroke-width="4" stroke-linecap="round" stroke-linejoin="round"/>
</svg>
