<svg width="24" height="7" viewBox="0 0 24 7" fill="none" xmlns="http://www.w3.org/2000/svg">
<path d="M3.375 5.75C4.68668 5.75 5.75 4.68668 5.75 3.375C5.75 2.06332 4.68668 1 3.375 1C2.06332 1 1 2.06332 1 3.375C1 4.68668 2.06332 5.75 3.375 5.75Z" stroke="white" stroke-width="1.5" stroke-linecap="round" stroke-linejoin="round"/>
<path d="M12.125 5.75C13.4367 5.75 14.5 4.68668 14.5 3.375C14.5 2.06332 13.4367 1 12.125 1C10.8133 1 9.75 2.06332 9.75 3.375C9.75 4.68668 10.8133 5.75 12.125 5.75Z" stroke="white" stroke-width="1.5" stroke-linecap="round" stroke-linejoin="round"/>
<path d="M20.875 5.75C22.1867 5.75 23.25 4.68668 23.25 3.375C23.25 2.06332 22.1867 1 20.875 1C19.5633 1 18.5 2.06332 18.5 3.375C18.5 4.68668 19.5633 5.75 20.875 5.75Z" stroke="white" stroke-width="1.5" stroke-linecap="round" stroke-linejoin="round"/>
</svg>
