<svg width="7" height="11" viewBox="0 0 7 11" fill="none" xmlns="http://www.w3.org/2000/svg">
<path d="M0.456522 4.51765L4.41304 0.869003C4.89493 0.424617 5.4463 0.325449 6.06717 0.571498C6.68906 0.816612 7 1.25492 7 1.88641L7 9.11353C7 9.74503 6.68906 10.1833 6.06717 10.4284C5.4463 10.6745 4.89493 10.5753 4.41304 10.1309L0.456522 6.4823C0.304348 6.34197 0.190218 6.18994 0.114131 6.02622C0.0380442 5.8625 -2.49303e-07 5.68708 -2.40413e-07 5.49997C-2.31523e-07 5.31286 0.0380442 5.13745 0.114131 4.97373C0.190218 4.81 0.304348 4.65798 0.456522 4.51765Z" fill="white"/>
</svg>
