<svg width="52" height="59" viewBox="0 0 52 59" fill="none" xmlns="http://www.w3.org/2000/svg">
<path d="M7.12933 35.1003L38.4386 35.1032C38.7349 35.6028 39.0939 36.0647 39.5213 36.4772L41.5698 38.4583C41.3044 39.481 40.9017 40.4615 40.3731 41.3719C39.8371 42.3217 39.1788 43.1941 38.4158 43.9659L36.1536 43.1962C34.8563 42.7608 33.4548 42.7714 32.164 43.2263C30.8732 43.6813 29.7645 44.5554 29.0079 45.7147L26.9537 48.7938C26.0846 50.1037 25.6863 51.6797 25.8265 53.2547C25.9667 54.8297 26.6367 56.3069 27.7229 57.4358L28.3697 58.0981C26.8255 58.2608 25.2072 58.3421 23.5034 58.3421C15.2693 58.3421 8.89295 56.4366 4.43973 52.5324C3.27254 51.5098 2.33578 50.2422 1.69356 48.8164C1.05135 47.3905 0.718824 45.84 0.71875 44.271V41.6362C0.71875 40.7779 0.884565 39.928 1.20673 39.135C1.52889 38.3421 2.00109 37.6215 2.59636 37.0146C3.19164 36.4077 3.89834 35.9263 4.6761 35.5978C5.45387 35.2693 6.28748 35.1003 7.12933 35.1003ZM42.0627 26.5541C42.7351 24.939 44.3449 24.0589 45.9261 24.3958L46.2623 24.483L48.0573 25.0698C49.838 25.6507 51.2028 27.2048 51.6444 29.1569C52.69 33.7989 51.4335 39.4489 47.8778 46.1097C44.3249 52.7619 40.4301 56.759 36.1963 58.1069C35.3878 58.3622 34.5291 58.4048 33.7001 58.2306C32.8711 58.0563 32.0989 57.671 31.4553 57.1105L31.1049 56.7822L29.7401 55.3879C29.1664 54.7856 28.7958 54.0126 28.6821 53.1811C28.5683 52.3495 28.7174 51.5027 29.1076 50.7633L29.3099 50.4264L31.3642 47.3472C32.1733 46.1359 33.558 45.5636 34.8914 45.8512L35.2532 45.9529L39.0483 47.2426C40.5883 46.0451 41.8768 44.5446 42.8377 42.8301C43.6685 41.4057 44.2436 39.8417 44.5358 38.2114L44.644 37.4271L41.4843 34.3712C40.974 33.8645 40.6113 33.2237 40.4363 32.5197C40.2612 31.8157 40.2808 31.0761 40.4928 30.3828L40.6267 30.0051L42.0627 26.5541ZM23.5034 0.256348C25.3741 0.256348 27.2266 0.632031 28.955 1.36195C30.6833 2.09186 32.2538 3.16172 33.5766 4.51043C34.8994 5.85914 35.9488 7.4603 36.6647 9.22247C37.3806 10.9846 37.7491 12.8733 37.7491 14.7807C37.7491 16.6881 37.3806 18.5768 36.6647 20.3389C35.9488 22.1011 34.8994 23.7023 33.5766 25.051C32.2538 26.3997 30.6833 27.4695 28.955 28.1995C27.2266 28.9294 25.3741 29.3051 23.5034 29.3051C19.7252 29.3051 16.1017 27.7748 13.4301 25.051C10.7585 22.3271 9.25764 18.6328 9.25764 14.7807C9.25764 10.9286 10.7585 7.23428 13.4301 4.51043C16.1017 1.78659 19.7252 0.256348 23.5034 0.256348Z" fill="white"/>
</svg>
