<svg width="7" height="11" viewBox="0 0 7 11" fill="none" xmlns="http://www.w3.org/2000/svg">
<path d="M6.54348 6.48235L2.58696 10.131C2.10507 10.5754 1.5537 10.6746 0.932826 10.4285C0.310942 10.1834 1.09965e-07 9.74508 1.95176e-07 9.11359L1.17037e-06 1.88647C1.25558e-06 1.25497 0.310943 0.816668 0.932827 0.571554C1.5537 0.325505 2.10507 0.424672 2.58696 0.869058L6.54348 4.5177C6.69565 4.65803 6.80978 4.81006 6.88587 4.97378C6.96196 5.1375 7 5.31292 7 5.50003C7 5.68714 6.96196 5.86255 6.88587 6.02628C6.80978 6.19 6.69565 6.34202 6.54348 6.48235Z" fill="white"/>
</svg>
