<svg width="28" height="30" viewBox="0 0 28 30" fill="none" xmlns="http://www.w3.org/2000/svg">
<path d="M14.2257 0.502344C13.9875 0.503047 13.7544 0.571727 13.5538 0.700314C13.3532 0.828901 13.1934 1.01205 13.0932 1.22822L0.695904 27.7669C0.591614 27.9984 0.560183 28.2561 0.605785 28.5057C0.651388 28.7553 0.771864 28.9851 0.951214 29.1644C1.13056 29.3438 1.3603 29.4642 1.60991 29.5098C1.85951 29.5554 2.11718 29.524 2.34868 29.4197L12.9816 24.8499L12.9707 13.6184L15.4647 13.6169L15.4579 24.8838L26.0941 29.4319C26.3241 29.5307 26.5786 29.5582 26.8246 29.5108C27.0707 29.4633 27.2968 29.3431 27.4739 29.1657C27.6491 28.9832 27.7649 28.752 27.8061 28.5025C27.8473 28.2531 27.8119 27.9971 27.7047 27.7683L15.3395 1.24454C15.2434 1.02788 15.0877 0.84307 14.8905 0.711659C14.6933 0.580249 14.4627 0.507659 14.2257 0.502344Z" fill="white"/>
</svg>
