<svg width="24" height="24" viewBox="0 0 24 24" fill="none" xmlns="http://www.w3.org/2000/svg">
<rect width="24" height="24" rx="5" fill="#D9D9D9"/>
<path d="M10.5373 16.6605L6.08109 12.228C6.05539 12.2024 6.035 12.172 6.02108 12.1386C6.00716 12.1051 6 12.0692 6 12.033C6 11.9967 6.00716 11.9608 6.02108 11.9274C6.035 11.8939 6.05539 11.8635 6.08109 11.838L7.20609 10.7117C7.31359 10.6042 7.48734 10.6042 7.59484 10.7117L10.5286 13.628C10.6361 13.7355 10.8111 13.7342 10.9186 13.6267L17.4011 7.08172C17.5086 6.97297 17.6836 6.97297 17.7923 7.08047L18.9186 8.20672C19.0261 8.31422 19.0261 8.48797 18.9198 8.59547L11.8573 15.7217L11.8586 15.723L10.9273 16.6592C10.8198 16.7667 10.6448 16.7667 10.5373 16.6605Z" fill="black"/>
</svg>
